<svg width="64" height="125" viewBox="0 0 64 125" fill="none" xmlns="http://www.w3.org/2000/svg">
<path id="Vector 159" d="M63.4146 5.40432C63.6379 4.89919 63.4095 4.30868 62.9043 4.08538L54.6728 0.446504C54.1676 0.223204 53.5771 0.451672 53.3538 0.956801C53.1305 1.46193 53.359 2.05244 53.8641 2.27574L61.1811 5.5103L57.9465 12.8272C57.7232 13.3324 57.9517 13.9229 58.4568 14.1462C58.9619 14.3695 59.5524 14.141 59.7757 13.6359L63.4146 5.40432ZM8.94614 124.179C-5.67096 81.0708 7.82307 51.5685 24.9262 32.7985C33.4978 23.3916 42.9904 16.669 50.3467 12.2971C54.023 10.1123 57.1607 8.51752 59.3756 7.47047C60.4829 6.94702 61.3591 6.56067 61.9561 6.30609C62.2546 6.17881 62.4832 6.08449 62.636 6.02246C62.7124 5.99145 62.7699 5.96851 62.8076 5.95357C62.8265 5.9461 62.8404 5.94062 62.8493 5.93714C62.8537 5.93539 62.8569 5.93415 62.8589 5.9334C62.8598 5.93302 62.8603 5.93283 62.8608 5.93264C62.861 5.93257 62.8608 5.93263 62.5 5C62.1392 4.06737 62.1384 4.06767 62.1373 4.0681C62.1365 4.06841 62.1351 4.06896 62.1335 4.06958C62.1303 4.07082 62.1258 4.07255 62.1201 4.07479C62.1087 4.07926 62.0923 4.08573 62.0709 4.09421C62.0281 4.11117 61.9655 4.13617 61.8838 4.16931C61.7206 4.23558 61.4811 4.33437 61.1716 4.46637C60.5525 4.73035 59.6528 5.1272 58.5208 5.66234C56.2571 6.73248 53.0627 8.35646 49.3249 10.5779C41.8529 15.0185 32.189 21.8584 23.4479 31.4515C5.92559 50.6815 -7.83083 80.9292 7.05207 124.821L8.94614 124.179Z" fill="white"/>
</svg>
