<svg width="720" height="829" viewBox="0 0 720 829" fill="none" xmlns="http://www.w3.org/2000/svg">
<rect width="719.5" height="829" fill="black" fill-opacity="0.25"/>
<g clip-path="url(#clip0_10_967)">
<path opacity="0.25" d="M109.543 133.917V633.917" stroke="white"/>
<path opacity="0.25" d="M192.876 133.917V633.917" stroke="white"/>
<path opacity="0.25" d="M276.209 133.917V633.917" stroke="white"/>
<path opacity="0.25" d="M359.543 133.917V633.917" stroke="white"/>
<path opacity="0.25" d="M442.876 133.917V633.917" stroke="white"/>
<path opacity="0.25" d="M526.209 133.917V633.917" stroke="white"/>
<path opacity="0.25" d="M609.543 133.917V633.917" stroke="white"/>
<path opacity="0.24" d="M609.543 133.917H109.543" stroke="white"/>
<path opacity="0.24" d="M609.543 217.25H109.543" stroke="white"/>
<path opacity="0.24" d="M609.543 300.584H109.543" stroke="white"/>
<path opacity="0.24" d="M609.543 383.917H109.543" stroke="white"/>
<path opacity="0.24" d="M609.543 467.25H109.543" stroke="white"/>
<path opacity="0.24" d="M609.543 550.584H109.543" stroke="white"/>
<path opacity="0.24" d="M609.543 633.917H109.543" stroke="white"/>
<path d="M563.708 133.917C557.702 155.121 485.559 292.396 442.463 289.557C403.311 286.979 361.383 238.243 311.834 238.243C262.285 238.243 230.003 300.159 230.378 387.946C230.745 473.615 269.208 537.379 311.459 535.528C359.881 533.408 399.857 490.522 442.839 485.486C493.514 479.549 559.204 625.435 562.207 633.917" stroke="white" stroke-width="2" stroke-linecap="round" stroke-linejoin="round"/>
<g opacity="0.5">
<circle cx="234.5" cy="433" r="73" fill="url(#paint0_radial_10_967)" fill-opacity="0.1"/>
<circle cx="234.5" cy="433" r="72" stroke="white" stroke-opacity="0.05" stroke-width="2"/>
</g>
<g opacity="0.75">
<circle cx="235" cy="433.5" r="43.5" fill="url(#paint1_radial_10_967)" fill-opacity="0.1"/>
<circle cx="235" cy="433.5" r="42.5" stroke="white" stroke-opacity="0.05" stroke-width="2"/>
</g>
<circle cx="234.5" cy="433" r="25" fill="url(#paint2_radial_10_967)" fill-opacity="0.1"/>
<circle cx="234.5" cy="433" r="24" stroke="white" stroke-opacity="0.05" stroke-width="2"/>
<circle cx="234.5" cy="433" r="5" fill="white"/>
<path d="M152.679 585.428H161.103V594.5H158.997V592.232H158.673C158.367 593.024 157.827 593.663 157.053 594.149C156.279 594.635 155.379 594.878 154.353 594.878C152.319 594.878 150.717 594.221 149.547 592.907C148.395 591.593 147.819 589.676 147.819 587.156V582.944C147.819 580.496 148.404 578.597 149.574 577.247C150.744 575.897 152.373 575.222 154.461 575.222C155.541 575.222 156.495 575.402 157.323 575.762C158.151 576.104 158.844 576.59 159.402 577.22C159.96 577.832 160.383 578.561 160.671 579.407C160.959 580.235 161.103 581.126 161.103 582.08V582.404H158.835V582.08C158.835 581.468 158.745 580.874 158.565 580.298C158.403 579.722 158.142 579.218 157.782 578.786C157.44 578.336 156.99 577.985 156.432 577.733C155.892 577.463 155.235 577.328 154.461 577.328C153.003 577.328 151.905 577.859 151.167 578.921C150.447 579.983 150.087 581.378 150.087 583.106V586.994C150.087 588.848 150.447 590.279 151.167 591.287C151.905 592.277 153.021 592.772 154.515 592.772C155.865 592.772 156.918 592.34 157.674 591.476C158.448 590.612 158.835 589.406 158.835 587.858V587.534H152.679V585.428ZM166.646 588.452C166.7 589.784 167.114 590.855 167.888 591.665C168.662 592.475 169.742 592.88 171.128 592.88C171.758 592.88 172.307 592.808 172.775 592.664C173.243 592.52 173.639 592.322 173.963 592.07C174.305 591.818 174.575 591.53 174.773 591.206C174.989 590.864 175.16 590.504 175.286 590.126L177.284 590.666C176.906 591.908 176.204 592.925 175.178 593.717C174.17 594.491 172.802 594.878 171.074 594.878C170.12 594.878 169.238 594.716 168.428 594.392C167.636 594.05 166.952 593.573 166.376 592.961C165.8 592.349 165.35 591.62 165.026 590.774C164.702 589.928 164.54 588.992 164.54 587.966V587.318C164.54 586.382 164.702 585.509 165.026 584.699C165.368 583.889 165.836 583.196 166.43 582.62C167.024 582.026 167.717 581.567 168.509 581.243C169.319 580.901 170.192 580.73 171.128 580.73C172.226 580.73 173.171 580.937 173.963 581.351C174.773 581.747 175.43 582.242 175.934 582.836C176.456 583.43 176.834 584.078 177.068 584.78C177.32 585.482 177.446 586.13 177.446 586.724V588.452H166.646ZM171.128 582.728C170.534 582.728 169.976 582.827 169.454 583.025C168.95 583.205 168.5 583.466 168.104 583.808C167.726 584.15 167.411 584.555 167.159 585.023C166.925 585.473 166.772 585.968 166.7 586.508H175.34C175.304 585.932 175.16 585.41 174.908 584.942C174.674 584.474 174.359 584.078 173.963 583.754C173.585 583.43 173.144 583.178 172.64 582.998C172.154 582.818 171.65 582.728 171.128 582.728ZM183.746 594.5H181.64V581.108H183.746V583.376H184.07C184.898 581.612 186.338 580.73 188.39 580.73C189.938 580.73 191.171 581.216 192.089 582.188C193.007 583.142 193.466 584.582 193.466 586.508V594.5H191.36V586.94C191.36 585.536 191.045 584.483 190.415 583.781C189.785 583.079 188.93 582.728 187.85 582.728C186.572 582.728 185.564 583.169 184.826 584.051C184.106 584.915 183.746 586.076 183.746 587.534V594.5ZM199.711 588.452C199.765 589.784 200.179 590.855 200.953 591.665C201.727 592.475 202.807 592.88 204.193 592.88C204.823 592.88 205.372 592.808 205.84 592.664C206.308 592.52 206.704 592.322 207.028 592.07C207.37 591.818 207.64 591.53 207.838 591.206C208.054 590.864 208.225 590.504 208.351 590.126L210.349 590.666C209.971 591.908 209.269 592.925 208.243 593.717C207.235 594.491 205.867 594.878 204.139 594.878C203.185 594.878 202.303 594.716 201.493 594.392C200.701 594.05 200.017 593.573 199.441 592.961C198.865 592.349 198.415 591.62 198.091 590.774C197.767 589.928 197.605 588.992 197.605 587.966V587.318C197.605 586.382 197.767 585.509 198.091 584.699C198.433 583.889 198.901 583.196 199.495 582.62C200.089 582.026 200.782 581.567 201.574 581.243C202.384 580.901 203.257 580.73 204.193 580.73C205.291 580.73 206.236 580.937 207.028 581.351C207.838 581.747 208.495 582.242 208.999 582.836C209.521 583.43 209.899 584.078 210.133 584.78C210.385 585.482 210.511 586.13 210.511 586.724V588.452H199.711ZM204.193 582.728C203.599 582.728 203.041 582.827 202.519 583.025C202.015 583.205 201.565 583.466 201.169 583.808C200.791 584.15 200.476 584.555 200.224 585.023C199.99 585.473 199.837 585.968 199.765 586.508H208.405C208.369 585.932 208.225 585.41 207.973 584.942C207.739 584.474 207.424 584.078 207.028 583.754C206.65 583.43 206.209 583.178 205.705 582.998C205.219 582.818 204.715 582.728 204.193 582.728ZM213.948 581.108H218.808V582.89H219.132C219.474 582.152 219.96 581.612 220.59 581.27C221.22 580.91 221.94 580.73 222.75 580.73C224.1 580.73 225.189 581.171 226.017 582.053C226.845 582.935 227.286 584.222 227.34 585.914L225.126 586.238C225.126 584.996 224.829 584.105 224.235 583.565C223.641 583.007 222.912 582.728 222.048 582.728C221.49 582.728 221.004 582.836 220.59 583.052C220.194 583.268 219.861 583.565 219.591 583.943C219.321 584.321 219.123 584.762 218.997 585.266C218.871 585.77 218.808 586.31 218.808 586.886V592.556H222.21V594.5H213.624V592.556H216.702V583.052H213.948V581.108ZM240.956 592.232H240.632C240.2 593.132 239.597 593.798 238.823 594.23C238.067 594.662 237.266 594.878 236.42 594.878C235.538 594.878 234.719 594.734 233.963 594.446C233.207 594.14 232.541 593.699 231.965 593.123C231.407 592.529 230.966 591.809 230.642 590.963C230.318 590.117 230.156 589.136 230.156 588.02V587.588C230.156 586.49 230.318 585.518 230.642 584.672C230.966 583.826 231.407 583.115 231.965 582.539C232.541 581.945 233.207 581.495 233.963 581.189C234.719 580.883 235.52 580.73 236.366 580.73C237.284 580.73 238.112 580.937 238.85 581.351C239.606 581.747 240.2 582.368 240.632 583.214H240.956V581.108H243.062V591.746C243.062 592.286 243.305 592.556 243.791 592.556H244.466V594.5H243.035C242.423 594.5 241.919 594.302 241.523 593.906C241.145 593.51 240.956 593.006 240.956 592.394V592.232ZM236.636 592.88C237.266 592.88 237.842 592.763 238.364 592.529C238.904 592.295 239.363 591.962 239.741 591.53C240.119 591.098 240.416 590.585 240.632 589.991C240.848 589.379 240.956 588.704 240.956 587.966V587.642C240.956 586.922 240.848 586.265 240.632 585.671C240.416 585.059 240.11 584.537 239.714 584.105C239.336 583.673 238.877 583.34 238.337 583.106C237.815 582.854 237.248 582.728 236.636 582.728C236.006 582.728 235.43 582.845 234.908 583.079C234.386 583.313 233.927 583.646 233.531 584.078C233.153 584.492 232.856 585.005 232.64 585.617C232.424 586.211 232.316 586.868 232.316 587.588V588.02C232.316 589.55 232.712 590.747 233.504 591.611C234.314 592.457 235.358 592.88 236.636 592.88ZM247.309 581.108H251.521V575.6H253.627V581.108H258.811V583.052H253.627V591.746C253.627 592.286 253.87 592.556 254.356 592.556H258.163V594.5H253.6C252.988 594.5 252.484 594.302 252.088 593.906C251.71 593.51 251.521 593.006 251.521 592.394V583.052H247.309V581.108ZM276.937 587.966C276.937 589.082 276.748 590.072 276.37 590.936C276.01 591.782 275.524 592.502 274.912 593.096C274.3 593.672 273.58 594.113 272.752 594.419C271.942 594.725 271.096 594.878 270.214 594.878C269.314 594.878 268.459 594.725 267.649 594.419C266.839 594.113 266.128 593.672 265.516 593.096C264.904 592.502 264.409 591.782 264.031 590.936C263.671 590.072 263.491 589.082 263.491 587.966V587.642C263.491 586.544 263.671 585.572 264.031 584.726C264.409 583.862 264.904 583.133 265.516 582.539C266.146 581.945 266.866 581.495 267.676 581.189C268.486 580.883 269.332 580.73 270.214 580.73C271.096 580.73 271.942 580.883 272.752 581.189C273.562 581.495 274.273 581.945 274.885 582.539C275.515 583.133 276.01 583.862 276.37 584.726C276.748 585.572 276.937 586.544 276.937 587.642V587.966ZM270.214 592.88C270.862 592.88 271.456 592.772 271.996 592.556C272.554 592.322 273.04 591.989 273.454 591.557C273.868 591.125 274.192 590.612 274.426 590.018C274.66 589.406 274.777 588.722 274.777 587.966V587.642C274.777 586.922 274.66 586.265 274.426 585.671C274.192 585.059 273.868 584.537 273.454 584.105C273.04 583.673 272.554 583.34 271.996 583.106C271.438 582.854 270.844 582.728 270.214 582.728C269.584 582.728 268.99 582.854 268.432 583.106C267.874 583.34 267.388 583.673 266.974 584.105C266.56 584.537 266.236 585.059 266.002 585.671C265.768 586.265 265.651 586.922 265.651 587.642V587.966C265.651 588.722 265.768 589.406 266.002 590.018C266.236 590.612 266.56 591.125 266.974 591.557C267.388 591.989 267.865 592.322 268.405 592.556C268.963 592.772 269.566 592.88 270.214 592.88ZM280.077 581.108H284.937V582.89H285.261C285.603 582.152 286.089 581.612 286.719 581.27C287.349 580.91 288.069 580.73 288.879 580.73C290.229 580.73 291.318 581.171 292.146 582.053C292.974 582.935 293.415 584.222 293.469 585.914L291.255 586.238C291.255 584.996 290.958 584.105 290.364 583.565C289.77 583.007 289.041 582.728 288.177 582.728C287.619 582.728 287.133 582.836 286.719 583.052C286.323 583.268 285.99 583.565 285.72 583.943C285.45 584.321 285.252 584.762 285.126 585.266C285 585.77 284.937 586.31 284.937 586.886V592.556H288.339V594.5H279.753V592.556H282.831V583.052H280.077V581.108ZM315.517 599.9H313.411V581.108H315.517V583.214H315.841C316.309 582.404 316.957 581.792 317.785 581.378C318.613 580.946 319.513 580.73 320.485 580.73C321.313 580.73 322.096 580.883 322.834 581.189C323.572 581.495 324.22 581.936 324.778 582.512C325.354 583.088 325.804 583.799 326.128 584.645C326.47 585.491 326.641 586.454 326.641 587.534V588.074C326.641 589.172 326.479 590.144 326.155 590.99C325.831 591.836 325.381 592.547 324.805 593.123C324.247 593.699 323.59 594.14 322.834 594.446C322.078 594.734 321.277 594.878 320.431 594.878C319.999 594.878 319.558 594.824 319.108 594.716C318.658 594.626 318.226 594.482 317.812 594.284C317.416 594.068 317.047 593.816 316.705 593.528C316.363 593.222 316.075 592.862 315.841 592.448H315.517V599.9ZM319.999 592.88C320.647 592.88 321.241 592.772 321.781 592.556C322.321 592.322 322.789 591.998 323.185 591.584C323.599 591.17 323.914 590.666 324.13 590.072C324.364 589.478 324.481 588.812 324.481 588.074V587.534C324.481 586.814 324.364 586.166 324.13 585.59C323.914 584.996 323.599 584.492 323.185 584.078C322.789 583.646 322.312 583.313 321.754 583.079C321.214 582.845 320.629 582.728 319.999 582.728C319.369 582.728 318.784 582.854 318.244 583.106C317.704 583.34 317.227 583.673 316.813 584.105C316.417 584.537 316.102 585.059 315.868 585.671C315.634 586.265 315.517 586.922 315.517 587.642V587.966C315.517 588.704 315.634 589.379 315.868 589.991C316.102 590.585 316.417 591.098 316.813 591.53C317.227 591.962 317.704 592.295 318.244 592.529C318.784 592.763 319.369 592.88 319.999 592.88ZM343.066 587.966C343.066 589.082 342.877 590.072 342.499 590.936C342.139 591.782 341.653 592.502 341.041 593.096C340.429 593.672 339.709 594.113 338.881 594.419C338.071 594.725 337.225 594.878 336.343 594.878C335.443 594.878 334.588 594.725 333.778 594.419C332.968 594.113 332.257 593.672 331.645 593.096C331.033 592.502 330.538 591.782 330.16 590.936C329.8 590.072 329.62 589.082 329.62 587.966V587.642C329.62 586.544 329.8 585.572 330.16 584.726C330.538 583.862 331.033 583.133 331.645 582.539C332.275 581.945 332.995 581.495 333.805 581.189C334.615 580.883 335.461 580.73 336.343 580.73C337.225 580.73 338.071 580.883 338.881 581.189C339.691 581.495 340.402 581.945 341.014 582.539C341.644 583.133 342.139 583.862 342.499 584.726C342.877 585.572 343.066 586.544 343.066 587.642V587.966ZM336.343 592.88C336.991 592.88 337.585 592.772 338.125 592.556C338.683 592.322 339.169 591.989 339.583 591.557C339.997 591.125 340.321 590.612 340.555 590.018C340.789 589.406 340.906 588.722 340.906 587.966V587.642C340.906 586.922 340.789 586.265 340.555 585.671C340.321 585.059 339.997 584.537 339.583 584.105C339.169 583.673 338.683 583.34 338.125 583.106C337.567 582.854 336.973 582.728 336.343 582.728C335.713 582.728 335.119 582.854 334.561 583.106C334.003 583.34 333.517 583.673 333.103 584.105C332.689 584.537 332.365 585.059 332.131 585.671C331.897 586.265 331.78 586.922 331.78 587.642V587.966C331.78 588.722 331.897 589.406 332.131 590.018C332.365 590.612 332.689 591.125 333.103 591.557C333.517 591.989 333.994 592.322 334.534 592.556C335.092 592.772 335.695 592.88 336.343 592.88ZM351.12 577.112C351.12 576.59 351.3 576.149 351.66 575.789C352.038 575.411 352.488 575.222 353.01 575.222C353.532 575.222 353.973 575.411 354.333 575.789C354.711 576.149 354.9 576.59 354.9 577.112C354.9 577.634 354.711 578.084 354.333 578.462C353.973 578.822 353.532 579.002 353.01 579.002C352.488 579.002 352.038 578.822 351.66 578.462C351.3 578.084 351.12 577.634 351.12 577.112ZM347.286 592.556H351.984V583.052H347.772V581.108H354.09V592.556H358.464V594.5H347.286V592.556ZM365.6 594.5H363.494V581.108H365.6V583.376H365.924C366.752 581.612 368.192 580.73 370.244 580.73C371.792 580.73 373.025 581.216 373.943 582.188C374.861 583.142 375.32 584.582 375.32 586.508V594.5H373.214V586.94C373.214 585.536 372.899 584.483 372.269 583.781C371.639 583.079 370.784 582.728 369.704 582.728C368.426 582.728 367.418 583.169 366.68 584.051C365.96 584.915 365.6 586.076 365.6 587.534V594.5ZM379.567 581.108H383.779V575.6H385.885V581.108H391.069V583.052H385.885V591.746C385.885 592.286 386.128 592.556 386.614 592.556H390.421V594.5H385.858C385.246 594.5 384.742 594.302 384.346 593.906C383.968 593.51 383.779 593.006 383.779 592.394V583.052H379.567V581.108ZM417.195 585.428H425.619V594.5H423.513V592.232H423.189C422.883 593.024 422.343 593.663 421.569 594.149C420.795 594.635 419.895 594.878 418.869 594.878C416.835 594.878 415.233 594.221 414.063 592.907C412.911 591.593 412.335 589.676 412.335 587.156V582.944C412.335 580.496 412.92 578.597 414.09 577.247C415.26 575.897 416.889 575.222 418.977 575.222C420.057 575.222 421.011 575.402 421.839 575.762C422.667 576.104 423.36 576.59 423.918 577.22C424.476 577.832 424.899 578.561 425.187 579.407C425.475 580.235 425.619 581.126 425.619 582.08V582.404H423.351V582.08C423.351 581.468 423.261 580.874 423.081 580.298C422.919 579.722 422.658 579.218 422.298 578.786C421.956 578.336 421.506 577.985 420.948 577.733C420.408 577.463 419.751 577.328 418.977 577.328C417.519 577.328 416.421 577.859 415.683 578.921C414.963 579.983 414.603 581.378 414.603 583.106V586.994C414.603 588.848 414.963 590.279 415.683 591.287C416.421 592.277 417.537 592.772 419.031 592.772C420.381 592.772 421.434 592.34 422.19 591.476C422.964 590.612 423.351 589.406 423.351 587.858V587.534H417.195V585.428Z" fill="white"/>
<path d="M221.915 438.404C222.138 437.899 221.91 437.309 221.405 437.085L213.173 433.447C212.668 433.223 212.078 433.452 211.854 433.957C211.631 434.462 211.859 435.052 212.365 435.276L219.682 438.51L216.447 445.827C216.224 446.332 216.452 446.923 216.957 447.146C217.462 447.369 218.053 447.141 218.276 446.636L221.915 438.404ZM167.447 557.179C152.83 514.071 166.324 484.569 183.427 465.799C191.998 456.392 201.491 449.669 208.847 445.297C212.524 443.112 215.661 441.518 217.876 440.47C218.983 439.947 219.86 439.561 220.457 439.306C220.755 439.179 220.984 439.084 221.137 439.022C221.213 438.991 221.27 438.969 221.308 438.954C221.327 438.946 221.341 438.941 221.35 438.937C221.354 438.935 221.357 438.934 221.359 438.933C221.36 438.933 221.361 438.933 221.361 438.933C221.361 438.933 221.361 438.933 221 438C220.64 437.067 220.639 437.068 220.638 437.068C220.637 437.068 220.636 437.069 220.634 437.07C220.631 437.071 220.626 437.073 220.621 437.075C220.609 437.079 220.593 437.086 220.571 437.094C220.529 437.111 220.466 437.136 220.384 437.169C220.221 437.236 219.982 437.334 219.672 437.466C219.053 437.73 218.153 438.127 217.021 438.662C214.758 439.732 211.563 441.356 207.825 443.578C200.353 448.018 190.69 454.858 181.948 464.451C164.426 483.681 150.67 513.929 165.553 557.821L167.447 557.179Z" fill="white"/>
</g>
<rect x="109.75" y="133.5" width="500" height="500" stroke="white" stroke-opacity="0.25" stroke-width="0.833333"/>
<path d="M264.36 687.07H264.036C263.604 687.934 263.037 688.618 262.335 689.122C261.633 689.626 260.742 689.878 259.662 689.878C258.924 689.878 258.24 689.752 257.61 689.5C256.998 689.266 256.467 688.906 256.017 688.42C255.585 687.934 255.243 687.331 254.991 686.611C254.757 685.891 254.64 685.054 254.64 684.1V676.108H256.746V683.83C256.746 685.234 257.034 686.26 257.61 686.908C258.186 687.556 259.068 687.88 260.256 687.88C261.534 687.88 262.533 687.448 263.253 686.584C263.991 685.702 264.36 684.532 264.36 683.074V676.108H266.466V692.794C266.466 693.406 266.268 693.91 265.872 694.306C265.494 694.702 264.999 694.9 264.387 694.9H256.746V692.956H263.631C264.117 692.956 264.36 692.686 264.36 692.146V687.07ZM283.403 678.052H280.919L277.247 671.41H276.923L273.251 678.052H270.767L275.033 670.6H279.137L283.403 678.052ZM300.043 687.394V689.5H287.245V686.26C287.245 685.396 287.389 684.649 287.677 684.019C287.965 683.371 288.37 682.822 288.892 682.372C289.432 681.904 290.08 681.517 290.836 681.211C291.592 680.905 292.447 680.644 293.401 680.428C295.003 680.068 296.155 679.555 296.857 678.889C297.577 678.223 297.937 677.404 297.937 676.432V676.27C297.937 675.784 297.856 675.307 297.694 674.839C297.532 674.371 297.28 673.948 296.938 673.57C296.596 673.192 296.155 672.895 295.615 672.679C295.093 672.445 294.463 672.328 293.725 672.328C292.339 672.328 291.259 672.751 290.485 673.597C289.729 674.443 289.351 675.568 289.351 676.972V678.16H287.083V676.81C287.083 675.946 287.227 675.118 287.515 674.326C287.803 673.534 288.226 672.832 288.784 672.22C289.342 671.608 290.035 671.122 290.863 670.762C291.691 670.402 292.645 670.222 293.725 670.222C294.823 670.222 295.777 670.393 296.587 670.735C297.397 671.059 298.072 671.5 298.612 672.058C299.152 672.598 299.548 673.219 299.8 673.921C300.07 674.605 300.205 675.307 300.205 676.027V676.513C300.205 677.953 299.755 679.186 298.855 680.212C297.955 681.22 296.515 681.94 294.535 682.372C292.807 682.75 291.538 683.254 290.728 683.884C289.918 684.496 289.513 685.396 289.513 686.584V687.394H300.043ZM321.038 677.134H332.324V679.078H321.038V677.134ZM321.038 681.022H332.324V682.966H321.038V681.022ZM363.364 676.108H365.767L361.825 682.48V682.804L366.091 689.5H363.634L359.989 683.614H359.503L355.858 689.5H353.401L357.667 682.804V682.48L353.725 676.108H356.128L359.503 681.67H359.989L363.364 676.108ZM382.596 678.052H380.112L376.44 671.41H376.116L372.444 678.052H369.96L374.226 670.6H378.33L382.596 678.052ZM390.947 680.104V676.972L397.103 673.03V672.706H386.411V670.6H399.047V674.056L392.891 677.998V678.322H393.971C394.691 678.322 395.384 678.439 396.05 678.673C396.716 678.907 397.301 679.249 397.805 679.699C398.327 680.149 398.741 680.707 399.047 681.373C399.371 682.021 399.533 682.777 399.533 683.641V684.127C399.533 684.937 399.371 685.693 399.047 686.395C398.723 687.097 398.273 687.709 397.697 688.231C397.121 688.735 396.437 689.14 395.645 689.446C394.871 689.734 394.025 689.878 393.107 689.878C392.045 689.878 391.091 689.716 390.245 689.392C389.399 689.068 388.679 688.627 388.085 688.069C387.491 687.493 387.032 686.827 386.708 686.071C386.402 685.297 386.249 684.478 386.249 683.614V682.156H388.517V683.452C388.517 684.136 388.625 684.748 388.841 685.288C389.075 685.81 389.39 686.26 389.786 686.638C390.2 686.998 390.686 687.277 391.244 687.475C391.802 687.673 392.405 687.772 393.053 687.772C393.647 687.772 394.196 687.673 394.7 687.475C395.222 687.277 395.672 687.007 396.05 686.665C396.428 686.305 396.725 685.891 396.941 685.423C397.157 684.937 397.265 684.424 397.265 683.884V683.722C397.265 682.588 396.905 681.706 396.185 681.076C395.465 680.428 394.565 680.104 393.485 680.104H390.947ZM420.232 679.078H424.903V674.407H426.847V679.078H431.518V681.022H426.847V685.693H424.903V681.022H420.232V679.078ZM452.621 670.6H465.257V673.894L457.292 685.936C456.914 686.512 456.626 687.007 456.428 687.421C456.23 687.835 456.131 688.258 456.131 688.69V689.5H453.917V688.528C453.917 688.204 453.944 687.898 453.998 687.61C454.07 687.322 454.169 687.034 454.295 686.746C454.439 686.44 454.61 686.125 454.808 685.801C455.024 685.459 455.276 685.072 455.564 684.64L463.313 673.03V672.706H452.621V670.6Z" fill="white"/>
<defs>
<radialGradient id="paint0_radial_10_967" cx="0" cy="0" r="1" gradientUnits="userSpaceOnUse" gradientTransform="translate(234.5 433) rotate(90) scale(73)">
<stop offset="0.53125" stop-color="white" stop-opacity="0"/>
<stop offset="1" stop-color="white"/>
</radialGradient>
<radialGradient id="paint1_radial_10_967" cx="0" cy="0" r="1" gradientUnits="userSpaceOnUse" gradientTransform="translate(235 433.5) rotate(90) scale(43.5)">
<stop stop-color="white" stop-opacity="0"/>
<stop offset="1" stop-color="white"/>
</radialGradient>
<radialGradient id="paint2_radial_10_967" cx="0" cy="0" r="1" gradientUnits="userSpaceOnUse" gradientTransform="translate(234.5 433) rotate(90) scale(25)">
<stop stop-color="white" stop-opacity="0"/>
<stop offset="1" stop-color="white"/>
</radialGradient>
<clipPath id="clip0_10_967">
<rect x="109.75" y="133.5" width="500" height="500" fill="white"/>
</clipPath>
</defs>
</svg>
