<svg viewBox="0 0 24 24" fill="none" xmlns="http://www.w3.org/2000/svg">
<path fill-rule="evenodd" clip-rule="evenodd" d="M0 10.9565C0 4.91478 5.3833 0 12 0C18.6172 0 24 4.91478 24 10.9565C24 16.9977 18.6172 21.913 12 21.913C10.5908 21.913 9.20974 21.6903 7.89026 21.2499C7.57513 21.4372 7.24591 21.6454 6.90522 21.8614L6.90323 21.8626C5.32233 22.8646 3.53087 24 1.668 24C0.880696 24 0.521739 23.4856 0.521739 23.0071C0.521739 22.7781 0.629736 22.6336 0.987639 22.1546L0.987652 22.1546L0.988939 22.1529C1.68826 21.217 3.31367 19.0417 2.63165 17.8017C0.934435 15.8656 0 13.4369 0 10.9565ZM9.91304 13.0435C9.96939 13.0435 10.0273 13.0341 10.0837 13.0148C10.356 12.9209 10.5 12.623 10.4061 12.3511L8.05826 5.56852C7.98574 5.35826 7.78748 5.21739 7.56522 5.21739C7.34296 5.21739 7.1447 5.35826 7.07165 5.56852L4.72383 12.3511C4.62991 12.623 4.77391 12.9203 5.04626 13.0148C5.31861 13.1077 5.61548 12.9642 5.70991 12.6923L6.31096 10.9565H8.81896L9.42 12.6923C9.49461 12.9083 9.69652 13.0435 9.91304 13.0435ZM18.6793 11.4783H19.3043C19.5929 11.4783 19.8261 11.244 19.8261 10.956C19.8261 10.668 19.5929 10.4343 19.3043 10.4343H16.6957V9.39078C16.6957 9.10278 16.4624 8.86904 16.1739 8.86904C15.8854 8.86904 15.6522 9.10278 15.6522 9.39078V10.4343H13.0435C12.755 10.4343 12.5217 10.668 12.5217 10.956C12.5217 11.244 12.755 11.4777 13.0435 11.4777H17.591C17.376 12.1576 16.8877 13.3059 15.8489 14.3614C14.9932 13.511 14.591 12.7946 14.5784 12.7722C14.4417 12.5191 14.1277 12.4237 13.872 12.5603C13.6184 12.696 13.523 13.0127 13.6597 13.2668C13.6899 13.3231 14.1245 14.113 15.0553 15.0506C14.4621 15.4983 13.7489 15.9021 12.8744 16.2016C12.6021 16.2955 12.4565 16.5923 12.5499 16.8647C12.624 17.0812 12.8264 17.2174 13.0435 17.2174C13.0993 17.2174 13.1567 17.208 13.2125 17.1892C14.2831 16.8224 15.1414 16.3216 15.8442 15.767C16.44 16.2574 17.1631 16.7483 18.0355 17.1663C18.108 17.2012 18.1847 17.2174 18.2603 17.2174C18.455 17.2174 18.6417 17.1083 18.7315 16.921C18.8557 16.6612 18.7456 16.3497 18.4857 16.225C17.7626 15.8786 17.1511 15.4732 16.6388 15.0642C17.9661 13.703 18.4899 12.2061 18.6793 11.4783ZM7.56522 7.33409L8.45791 9.91304H6.67252L7.56522 7.33409Z" fill="currentColor"/>
</svg>