<svg viewBox="0 0 30 30" fill="none" xmlns="http://www.w3.org/2000/svg">
  <path fill-rule="evenodd" clip-rule="evenodd" d="M14.75 1.5C7.43223 1.5 1.5 7.43223 1.5 14.75C1.5 22.0678 7.43223 28 14.75 28C22.0678 28 28 22.0678 28 14.75C28 7.43223 22.0678 1.5 14.75 1.5ZM0 14.75C0 6.6038 6.6038 0 14.75 0C22.8962 0 29.5 6.6038 29.5 14.75C29.5 22.8962 22.8962 29.5 14.75 29.5C6.6038 29.5 0 22.8962 0 14.75Z" fill="currentColor"/>
  <path d="M11.25 7.83347C8.72829 9.11208 7 11.7292 7 14.75C7 19.0302 10.4698 22.5 14.75 22.5C19.0302 22.5 22.5 19.0302 22.5 14.75C22.5 11.7292 20.7717 9.11208 18.25 7.83347V9.57117C19.9094 10.6948 21 12.595 21 14.75C21 18.2018 18.2018 21 14.75 21C11.2982 21 8.5 18.2018 8.5 14.75C8.5 12.595 9.59062 10.6948 11.25 9.57117V7.83347Z" fill="currentColor"/>
  <path d="M14 7.5C14 7.08579 14.3358 6.75 14.75 6.75C15.1642 6.75 15.5 7.08579 15.5 7.5V13C15.5 13.4142 15.1642 13.75 14.75 13.75C14.3358 13.75 14 13.4142 14 13V7.5Z" fill="currentColor"/>
</svg>
